<?xml version="1.0" encoding="utf-8"?>
<svg id="master-artboard" viewBox="0 0 260 154" version="1.1" xmlns="http://www.w3.org/2000/svg" x="0px" y="0px" width="260px" height="154px" enable-background="new 0 0 1400 980"><rect id="ee-background" x="0" y="0" width="260" height="154" style="fill: rgb(221, 221, 214); fill-opacity: 1; pointer-events: none;"/>








<g id="XMLID_618_" transform="matrix(0.23351842164993286, -0.06845871359109879, 0.06845871359109879, 0.23351842164993286, -97.00138854980469, 55.97000503540039)">
		<g id="XMLID_665_">
			<path id="XMLID_1002_" fill="#2D3E50" d="M911.7,307.7v56.9c6.2,2.2,15.6,3.1,21.2-8.6C940.1,341.1,920.1,316.9,911.7,307.7z" style="fill-opacity: 1; fill: rgb(174, 174, 174);"/>
		</g>
	</g><path id="XMLID_975_" fill="#2D3E50" d="M910.2,477.7H763.7c-3,0-5.4-2.4-5.4-5.4v-211c0-3,2.4-5.4,5.4-5.4h146.5&#10;&#9;&#9;&#9;c3,0,5.4,2.4,5.4,5.4v211C915.6,475.3,913.2,477.7,910.2,477.7z M769.1,466.9h135.8V266.7H769.1V466.9z" transform="matrix(0.23351842164993286, -0.06845871359109879, 0.06845871359109879, 0.23351842164993286, -97.00138854980469, 55.97000503540039)" style="fill-opacity: 1; fill: rgb(174, 174, 174);"/><g id="XMLID_635_" transform="matrix(0.23351842164993286, -0.06845871359109879, 0.06845871359109879, 0.23351842164993286, -97.00138854980469, 55.97000503540039)">
			<path id="XMLID_4_" fill="#2D3E50" d="M786.6,294.8l-1.7,6.2h-5.7l7.4-24.2h7.2l7.5,24.2h-5.9l-1.9-6.2H786.6z M792.8,290.7&#10;&#9;&#9;&#9;&#9;l-1.5-5.1c-0.4-1.4-0.9-3.2-1.2-4.7H790c-0.4,1.4-0.7,3.3-1.1,4.7l-1.4,5.1H792.8z" style="fill-opacity: 1; fill: rgb(174, 174, 174);"/>
		</g><g id="XMLID_622_" transform="matrix(0.23351842164993286, -0.06845871359109879, 0.06845871359109879, 0.23351842164993286, -97.00138854980469, 55.97000503540039)">
			<path fill="#2D3E50" d="M887.2,440l1.7-6.2h5.7l-7.4,24.2h-7.2l-7.5-24.2h5.9l1.9,6.2H887.2z M881.1,444.1l1.5,5.1&#10;&#9;&#9;&#9;&#9;c0.4,1.4,0.9,3.2,1.2,4.7h0.1c0.4-1.4,0.7-3.3,1.1-4.7l1.4-5.1H881.1z" style="fill-opacity: 1; fill: rgb(174, 174, 174);"/>
		</g><path id="XMLID_1001_" fill="#2D3E50" d="M836.9,345.7c-14.6-12.8-36-4.3-32.3,16.4c3.8,20.7,32.3,30.9,32.3,30.9&#10;&#9;&#9;&#9;s28.5-10.2,32.3-30.9C873,341.3,851.6,332.9,836.9,345.7z" transform="matrix(0.23351842164993286, -0.06845871359109879, 0.06845871359109879, 0.23351842164993286, -97.00138854980469, 55.97000503540039)" style="fill-opacity: 1; fill: rgb(174, 174, 174);"/><path id="XMLID_1000_" fill="#2D3E50" d="M790.3,309.8c-5.1-4.5-12.7-1.5-11.3,5.8c1.3,7.3,11.3,10.9,11.3,10.9s10-3.6,11.3-10.9&#10;&#9;&#9;&#9;C802.9,308.3,795.4,305.3,790.3,309.8z" transform="matrix(0.23351842164993286, -0.06845871359109879, 0.06845871359109879, 0.23351842164993286, -97.00138854980469, 55.97000503540039)" style="fill-opacity: 1; fill: rgb(174, 174, 174);"/><path id="XMLID_999_" fill="#2D3E50" d="M883.6,426.3c5.1,4.5,12.7,1.5,11.3-5.8c-1.3-7.3-11.3-10.9-11.3-10.9s-10,3.6-11.3,10.9&#10;&#9;&#9;&#9;C870.9,427.8,878.5,430.8,883.6,426.3z" transform="matrix(0.23351842164993286, -0.06845871359109879, 0.06845871359109879, 0.23351842164993286, -97.00138854980469, 55.97000503540039)" style="fill-opacity: 1; fill: rgb(174, 174, 174);"/><path id="XMLID_974_" fill="#2D3E50" d="M946.6,464.5c-0.4,0-0.9-0.1-1.3-0.2l-36.7-8.9l2.6-10.5l31.4,7.7L990,258l-131.9-32.1&#10;&#9;&#9;&#9;l-8.9,36.7l-10.5-2.6l10.2-41.9c0.7-2.9,3.6-4.7,6.5-4l142.4,34.7c1.4,0.3,2.6,1.2,3.3,2.4c0.7,1.2,1,2.7,0.6,4.1l-50,205&#10;&#9;&#9;&#9;c-0.3,1.4-1.2,2.6-2.4,3.3C948.5,464.2,947.6,464.5,946.6,464.5z" transform="matrix(0.23351842164993286, -0.06845871359109879, 0.06845871359109879, 0.23351842164993286, -97.00138854980469, 55.97000503540039)" style="fill-opacity: 1; fill: rgb(174, 174, 174);"/><g id="XMLID_631_" transform="matrix(0.23351842164993286, -0.06845871359109879, 0.06845871359109879, 0.23351842164993286, -97.00138854980469, 55.97000503540039)">
			<path fill="#2D3E50" d="M868.6,257.3l-3.1,5.6l-5.5-1.3l12.9-21.7l7,1.7l1.6,25.3l-5.7-1.4l-0.3-6.5L868.6,257.3z M875.5,254.8&#10;&#9;&#9;&#9;&#9;l-0.2-5.3c-0.1-1.5-0.1-3.3-0.1-4.8l-0.1,0c-0.7,1.3-1.5,3-2.2,4.3l-2.6,4.6L875.5,254.8z" style="fill-opacity: 1; fill: rgb(174, 174, 174);"/>
		</g><g id="XMLID_626_" transform="matrix(0.23351842164993286, -0.06845871359109879, 0.06845871359109879, 0.23351842164993286, -97.00138854980469, 55.97000503540039)">
			<path fill="#2D3E50" d="M931.9,422.3l3.1-5.6l5.5,1.3l-12.9,21.7l-7-1.7l-1.6-25.3l5.7,1.4l0.3,6.5L931.9,422.3z M925,424.8&#10;&#9;&#9;&#9;&#9;l0.2,5.3c0.1,1.5,0.1,3.3,0.1,4.8l0.1,0c0.7-1.3,1.5-3,2.2-4.3l2.6-4.6L925,424.8z" style="fill-opacity: 1; fill: rgb(174, 174, 174);"/>
		</g><g id="XMLID_686_" transform="matrix(0.23351842164993286, -0.06845871359109879, 0.06845871359109879, 0.23351842164993286, -97.00138854980469, 55.97000503540039)">
			<path id="XMLID_998_" fill="#2D3E50" d="M931.6,409.7c0,0,15.1-5,15.3-11.9c0.1-6.9-7.4-5.8-7.4-5.8s1.1-2.9,2.5-3.7l-4.8-1.2&#10;&#9;&#9;&#9;&#9;l-4.8-1.2c0.9,1.4,0.5,4.4,0.5,4.4s-6.1-4.5-9.3,1.7C920.6,398.2,931.6,409.7,931.6,409.7z" style="fill-opacity: 1; fill: rgb(174, 174, 174);"/>
		</g><path d="M 225.23924255371094 150.8134002685547" style="fill: rgb(81, 81, 81); fill-opacity: 1; stroke: rgb(0, 0, 0); stroke-opacity: 1; stroke-width: 0; paint-order: fill;"/><path d="M 78.82775115966797 89.8086166381836" style="fill: rgb(81, 81, 81); fill-opacity: 1; stroke: rgb(0, 0, 0); stroke-opacity: 1; stroke-width: 0; paint-order: fill;"/></svg>